<svg xmlns="http://www.w3.org/2000/svg" viewBox="0 0 120 132">
  <!-- dym - unosi sie od podstawy plomienia, po bokach liscia -->
  <g stroke="#7E8B94" stroke-width="2.5" fill="none" stroke-linecap="round" opacity="0.5">
    <path d="M 44,58 C 36,50 42,42 36,32 C 31,24 37,18 32,10"/>
    <path d="M 76,58 C 84,50 78,42 84,32 C 89,24 83,18 88,10"/>
  </g>

  <!-- plomien - mala lza (glebszy niebieski) + wewnetrzny highlight (jasny cyan), pod liscie -->
  <path fill="#1656C9" d="M 60,66 C 72,82 76,92 68,100 C 64,105 56,105 52,100 C 44,92 48,82 60,66 Z"/>
  <path fill="#6FE0FF" d="M 61,76 C 68,84 70,90 66,95 C 63,98 57,98 54,95 C 50,90 52,84 61,76 Z"/>

  <!-- lisc konopi, 7 listkow z jednego punktu, na wierzchu -->
  <g transform="translate(60,70)">
    <g transform="rotate(0)"><path fill="#8FD14F" d="M 0,0 C -9.2,-13.4 -7.4,-30.2 0,-42 C 7.4,-30.2 9.2,-13.4 0,0 Z"/></g>
    <g transform="rotate(25)"><path fill="#8FD14F" d="M 0,0 C -7.9,-11.5 -6.3,-25.9 0,-36 C 6.3,-25.9 7.9,-11.5 0,0 Z"/></g>
    <g transform="rotate(-25)"><path fill="#8FD14F" d="M 0,0 C -7.9,-11.5 -6.3,-25.9 0,-36 C 6.3,-25.9 7.9,-11.5 0,0 Z"/></g>
    <g transform="rotate(50)"><path fill="#79BE3F" d="M 0,0 C -5.9,-8.6 -4.7,-19.4 0,-27 C 4.7,-19.4 5.9,-8.6 0,0 Z"/></g>
    <g transform="rotate(-50)"><path fill="#79BE3F" d="M 0,0 C -5.9,-8.6 -4.7,-19.4 0,-27 C 4.7,-19.4 5.9,-8.6 0,0 Z"/></g>
    <g transform="rotate(74)"><path fill="#5C9438" d="M 0,0 C -3.3,-4.8 -2.6,-10.8 0,-15 C 2.6,-10.8 3.3,-4.8 0,0 Z"/></g>
    <g transform="rotate(-74)"><path fill="#5C9438" d="M 0,0 C -3.3,-4.8 -2.6,-10.8 0,-15 C 2.6,-10.8 3.3,-4.8 0,0 Z"/></g>
  </g>
</svg>
